<svg width="393" xmlns="http://www.w3.org/2000/svg" height="333" id="screenshot-1dfced75-afb3-805d-8008-232ca0bb8c0d" viewBox="0 0 393 333" xmlns:xlink="http://www.w3.org/1999/xlink" fill="none" version="1.1"><g id="shape-1dfced75-afb3-805d-8008-232ca0bb8c0d"><defs><clipPath id="frame-clip-1dfced75-afb3-805d-8008-232ca0bb8c0d-render-1" class="frame-clip frame-clip-def"><rect rx="0" ry="0" x="0" y="0" width="393" height="333" transform="matrix(1.000000, 0.000000, 0.000000, 1.000000, 0.000000, 0.000000)"/></clipPath></defs><g class="frame-container-wrapper"><g class="frame-container-blur"><g class="frame-container-shadows"><g clip-path="url(#frame-clip-1dfced75-afb3-805d-8008-232ca0bb8c0d-render-1)" fill="none"><g class="fills" id="fills-1dfced75-afb3-805d-8008-232ca0bb8c0d"><rect width="393" height="333" class="frame-background" x="0" transform="matrix(1.000000, 0.000000, 0.000000, 1.000000, 0.000000, 0.000000)" style="fill: rgb(255, 255, 255); fill-opacity: 1;" ry="0" rx="0" y="0"/></g><g class="frame-children"><g id="shape-1dfced75-afb3-805d-8008-232ca0bb8c0e" rx="0" ry="0"><g id="shape-1dfced75-afb3-805d-8008-232ca0bb8c0f"><g class="fills" id="fills-1dfced75-afb3-805d-8008-232ca0bb8c0f"><path d="M75.087158203125,69.00942993164062C90.2237548828125,55.3868408203125,92.271240234375,16.371826171875,121.11865234375,13.8646240234375C153.9884033203125,11.007781982421875,158.745849609375,41.444091796875,179.12548828125,49.473358154296875C190.0694580078125,53.78497314453125,211.785888671875,54.711090087890625,224.20947265625,50.0828857421875C244.0340576171875,42.69775390625,256.2296142578125,7.859130859375,285.423828125,10.103729248046875C318.0340576171875,12.610992431640625,321.281982421875,57.19586181640625,326.9697265625,67.70700073242188C336.4615478515625,85.247802734375,377.4385986328125,102.78857421875,381.635986328125,175.11370849609375C390.092041015625,320.81329345703125,248.8502197265625,320.98297119140625,200.937744140625,320.98297119140625C155.76318359375,320.98297119140625,17.59228515625,325.58319091796875,12.11651611328125,183.6209716796875C9.25457763671875,109.4224853515625,59.93829345703125,82.64297485351562,75.087158203125,69.00942993164062"/></g><g id="strokes-c84760ec-993f-8097-8008-232f805dcbd6-1dfced75-afb3-805d-8008-232ca0bb8c0f" class="strokes"><g class="stroke-shape"><path d="M75.087158203125,69.00942993164062C90.2237548828125,55.3868408203125,92.271240234375,16.371826171875,121.11865234375,13.8646240234375C153.9884033203125,11.007781982421875,158.745849609375,41.444091796875,179.12548828125,49.473358154296875C190.0694580078125,53.78497314453125,211.785888671875,54.711090087890625,224.20947265625,50.0828857421875C244.0340576171875,42.69775390625,256.2296142578125,7.859130859375,285.423828125,10.103729248046875C318.0340576171875,12.610992431640625,321.281982421875,57.19586181640625,326.9697265625,67.70700073242188C336.4615478515625,85.247802734375,377.4385986328125,102.78857421875,381.635986328125,175.11370849609375C390.092041015625,320.81329345703125,248.8502197265625,320.98297119140625,200.937744140625,320.98297119140625C155.76318359375,320.98297119140625,17.59228515625,325.58319091796875,12.11651611328125,183.6209716796875C9.25457763671875,109.4224853515625,59.93829345703125,82.64297485351562,75.087158203125,69.00942993164062" style="fill: none; stroke-width: 13; stroke: rgb(0, 0, 0); stroke-opacity: 1;"/></g></g></g><g id="shape-1dfced75-afb3-805d-8008-232ca0bb8c10"><g class="fills" id="fills-1dfced75-afb3-805d-8008-232ca0bb8c10"><path d="M126.1356201171875,51.4730224609375C117.370849609375,53.4197998046875,112.2783203125,67.57888793945312,117.35595703125,74.0380859375C121.47607421875,79.27926635742188,136.8253173828125,77.00909423828125,139.93212890625,69.02362060546875C142.67822265625,61.965728759765625,132.421630859375,50.07684326171875,126.1356201171875,51.4730224609375" style="fill: rgb(0, 0, 0); fill-opacity: 1;"/></g><g id="strokes-c84760ec-993f-8097-8008-232f805edce0-1dfced75-afb3-805d-8008-232ca0bb8c10" class="strokes"><g class="inner-stroke-shape"><defs><clipPath id="inner-stroke-render-4-1dfced75-afb3-805d-8008-232ca0bb8c10-0"><use href="#stroke-shape-render-4-1dfced75-afb3-805d-8008-232ca0bb8c10-0"/></clipPath><path d="M126.1356201171875,51.4730224609375C117.370849609375,53.4197998046875,112.2783203125,67.57888793945312,117.35595703125,74.0380859375C121.47607421875,79.27926635742188,136.8253173828125,77.00909423828125,139.93212890625,69.02362060546875C142.67822265625,61.965728759765625,132.421630859375,50.07684326171875,126.1356201171875,51.4730224609375" id="stroke-shape-render-4-1dfced75-afb3-805d-8008-232ca0bb8c10-0" style="fill: none; stroke-width: 4; stroke: rgb(0, 0, 0); stroke-opacity: 1;"/></defs><use href="#stroke-shape-render-4-1dfced75-afb3-805d-8008-232ca0bb8c10-0" clip-path="url('#inner-stroke-render-4-1dfced75-afb3-805d-8008-232ca0bb8c10-0')"/></g></g></g><g id="shape-1dfced75-afb3-805d-8008-232ca0bb8c11"><g class="fills" id="fills-1dfced75-afb3-805d-8008-232ca0bb8c11"><path d="M280.40673828125,43.95135498046875C274.88671875,42.418731689453125,263.9119873046875,54.182037353515625,266.6102294921875,61.501922607421875C269.76513671875,70.06112670898438,285.4725341796875,72.4945068359375,289.1865234375,67.77001953125C294.67041015625,60.7940673828125,289.937744140625,46.597442626953125,280.40673828125,43.95135498046875" style="fill: rgb(0, 0, 0); fill-opacity: 1;"/></g><g id="strokes-c84760ec-993f-8097-8008-232f805fb164-1dfced75-afb3-805d-8008-232ca0bb8c11" class="strokes"><g class="inner-stroke-shape"><defs><clipPath id="inner-stroke-render-5-1dfced75-afb3-805d-8008-232ca0bb8c11-0"><use href="#stroke-shape-render-5-1dfced75-afb3-805d-8008-232ca0bb8c11-0"/></clipPath><path d="M280.40673828125,43.95135498046875C274.88671875,42.418731689453125,263.9119873046875,54.182037353515625,266.6102294921875,61.501922607421875C269.76513671875,70.06112670898438,285.4725341796875,72.4945068359375,289.1865234375,67.77001953125C294.67041015625,60.7940673828125,289.937744140625,46.597442626953125,280.40673828125,43.95135498046875" id="stroke-shape-render-5-1dfced75-afb3-805d-8008-232ca0bb8c11-0" style="fill: none; stroke-width: 4; stroke: rgb(0, 0, 0); stroke-opacity: 1;"/></defs><use href="#stroke-shape-render-5-1dfced75-afb3-805d-8008-232ca0bb8c11-0" clip-path="url('#inner-stroke-render-5-1dfced75-afb3-805d-8008-232ca0bb8c11-0')"/></g></g></g><g id="shape-1dfced75-afb3-805d-8008-232ca0bb8c12"><g class="fills" id="fills-1dfced75-afb3-805d-8008-232ca0bb8c12"><ellipse cx="139.93222402940546" cy="159.28383794952384" rx="18.813557839660916" ry="18.80420914983648" transform="matrix(1.000000, 0.000000, 0.000000, 1.000000, 0.000000, 0.000000)" style="fill: rgb(0, 0, 0); fill-opacity: 1;"/></g></g><g id="shape-1dfced75-afb3-805d-8008-232ca0bb8c13"><g class="fills" id="fills-1dfced75-afb3-805d-8008-232ca0bb8c13"><ellipse cx="259.0847570139259" cy="154.26938217623407" rx="18.81355783966103" ry="18.804209149836453" transform="matrix(1.000000, 0.000000, 0.000000, 1.000000, 0.000000, 0.000000)" style="fill: rgb(0, 0, 0); fill-opacity: 1;"/></g></g><g id="shape-1dfced75-afb3-805d-8008-232ca0bb8c14"><g class="fills" id="fills-1dfced75-afb3-805d-8008-232ca0bb8c14"><path d="M177.603271484375,206.38238525390625C174.66265869140625,214.65127563476562,192.34185791015625,215.98849487304688,193.28326416015625,220.87649536132812C203.7401123046875,275.1658630371094,153.39385986328125,245.91928100585938,155.5404052734375,263.4015197753906C156.80322265625,273.686279296875,174.14801025390625,271.5101013183594,186.181640625,265.9544372558594C197.44171142578125,260.7558288574219,199.7452392578125,252.92178344726562,203.4798583984375,252.46322631835938C207.214599609375,252.00466918945312,210.3065185546875,259.3951721191406,222.283447265625,261.5216979980469C236.345703125,264.0185241699219,255.7843017578125,261.223388671875,254.039306640625,252.57046508789062C250.5311279296875,235.17202758789062,212.6070556640625,275.340087890625,207.129638671875,220.4393310546875C206.5076904296875,214.20230102539062,222.1287841796875,209.18106079101562,218.684814453125,201.33819580078125C215.112060546875,193.20223999023438,196.60491943359375,196.47113037109375,196.60491943359375,196.47113037109375C196.60491943359375,196.47113037109375,180.4212646484375,198.45822143554688,177.603271484375,206.38238525390625" style="fill: rgb(0, 0, 0); fill-opacity: 1;"/></g><g id="strokes-c84760ec-993f-8097-8008-232f8060a302-1dfced75-afb3-805d-8008-232ca0bb8c14" class="strokes"><g class="stroke-shape"><path d="M177.603271484375,206.38238525390625C174.66265869140625,214.65127563476562,192.34185791015625,215.98849487304688,193.28326416015625,220.87649536132812C203.7401123046875,275.1658630371094,153.39385986328125,245.91928100585938,155.5404052734375,263.4015197753906C156.80322265625,273.686279296875,174.14801025390625,271.5101013183594,186.181640625,265.9544372558594C197.44171142578125,260.7558288574219,199.7452392578125,252.92178344726562,203.4798583984375,252.46322631835938C207.214599609375,252.00466918945312,210.3065185546875,259.3951721191406,222.283447265625,261.5216979980469C236.345703125,264.0185241699219,255.7843017578125,261.223388671875,254.039306640625,252.57046508789062C250.5311279296875,235.17202758789062,212.6070556640625,275.340087890625,207.129638671875,220.4393310546875C206.5076904296875,214.20230102539062,222.1287841796875,209.18106079101562,218.684814453125,201.33819580078125C215.112060546875,193.20223999023438,196.60491943359375,196.47113037109375,196.60491943359375,196.47113037109375C196.60491943359375,196.47113037109375,180.4212646484375,198.45822143554688,177.603271484375,206.38238525390625" style="fill: none; stroke-width: 2; stroke: rgb(0, 0, 0); stroke-opacity: 1;"/></g></g></g><g id="shape-1dfced75-afb3-805d-8008-232ca0bb8c15"><g class="fills" id="fills-1dfced75-afb3-805d-8008-232ca0bb8c15"><rect rx="3.134042441915369" ry="3.134042441915369" x="74.84515574343254" y="206.8548332415569" transform="matrix(0.997566, 0.069722, -0.069791, 0.997562, 14.922931, -7.154858)" width="70.23711281255237" height="6.268084883830738" style="fill: rgb(0, 0, 0); fill-opacity: 1;"/></g></g><g id="shape-1dfced75-afb3-805d-8008-232ca0bb8c16"><g class="fills" id="fills-1dfced75-afb3-805d-8008-232ca0bb8c16"><rect rx="3.134042441915483" ry="3.134042441915483" x="252.94683662555644" y="206.85483324155632" transform="matrix(0.997566, -0.069722, 0.069791, 0.997562, -13.954312, 20.596519)" width="70.23711281255282" height="6.268084883830966" style="fill: rgb(0, 0, 0); fill-opacity: 1;"/></g></g><g id="shape-1dfced75-afb3-805d-8008-232ca0bb8c17"><g class="fills" id="fills-1dfced75-afb3-805d-8008-232ca0bb8c17"><rect rx="3.1340466968599117" ry="3.1340466968599117" x="256.70959582547835" y="235.68794968302768" transform="matrix(0.996198, 0.087113, -0.087199, 0.996191, 21.934375, -24.512264)" width="70.23701754857552" height="6.268093393719823" style="fill: rgb(0, 0, 0); fill-opacity: 1;"/></g></g><g id="shape-1dfced75-afb3-805d-8008-232ca0bb8c18"><g class="fills" id="fills-1dfced75-afb3-805d-8008-232ca0bb8c18"><path d="M72.47021484375,241.8812255859375C72.31939697265625,240.158203125,73.5966796875,238.63671875,75.3206787109375,238.48602294921875L139.0433349609375,232.9136962890625C140.7672119140625,232.762939453125,142.2894287109375,234.03961181640625,142.440185546875,235.76263427734375L142.440185546875,235.76263427734375C142.5911865234375,237.48590087890625,141.3138427734375,239.00726318359375,139.58984375,239.157958984375L75.8671875,244.730224609375C74.1431884765625,244.88092041015625,72.62109375,243.60443115234375,72.47021484375,241.8812255859375L72.47021484375,241.8812255859375" style="fill: rgb(0, 0, 0); fill-opacity: 1;"/></g></g></g></g></g></g></g></g></g></svg>